<svg xmlns="http://www.w3.org/2000/svg" viewBox="0 0 500 670"><defs><style>.cls-1{fill:#38858d;}.cls-2{fill:#385a8d;}.cls-3{fill:#6d615e;}.cls-4{fill:#454c50;}.cls-5{fill:#c4aea7;}.cls-6{fill:#cfe3e8;}.cls-7{fill:#93524d;}.cls-8{fill:#aa6155;}.cls-9{fill:#9e5a51;}.cls-10{fill:#d3bbb2;}.cls-11{opacity:0.5;}.cls-12{fill:#c18872;}.cls-13{fill:#ce5252;opacity:0.1;}.cls-14{fill:#fff;}</style></defs><g id="Layer_1" data-name="Layer 1"><path class="cls-1" d="M185.17,618.48c-9.42,2.69-17.19,1.55-26.19,1.9-.42-44.54-12.31-85.76-19.16-130-5.07-31.42-12-77.15,17.05-92.63,6.32-3.12,16.72-.64,18.22,5.05,16.57,62.6,13.8,124.5,11.24,188.55C185.66,608.49,185.17,618.48,185.17,618.48Z"/><path class="cls-2" d="M185.89,596.39c-6.92,6-18.54,4.45-26.27.78-6.44-4.22-5.08,4.29-6,8-6.22,6.18-17.78,5.74-23.79,12.91-5,4.88-4.87,14,.52,18.58,10.51,4.23,23.1-.08,34.15-.68,9.76-1.74,25.57-3.5,24-16.79.35-7.31,1.63-16.32-1.17-22.9"/><circle class="cls-1" cx="192.12" cy="51.1" r="34.73"/><rect class="cls-3" x="326.17" y="482.24" width="6.56" height="78.11" rx="3.28" transform="translate(-272.12 385.64) rotate(-45)"/><rect class="cls-4" x="85.1" y="183.38" width="212.42" height="206.06"/><path class="cls-1" d="M197.51,618.48c9.42,2.69,17.19,1.55,26.19,1.9.42-44.54,12.31-85.76,19.16-130,5.07-31.42,12-77.15-17.05-92.63-6.32-3.12-16.72-.64-18.22,5.05-16.57,62.6-13.8,124.5-11.24,188.55C197,608.49,197.51,618.48,197.51,618.48Z"/><path class="cls-4" d="M299.31,391.34c-2.57-58.13-49.94-104.46-108-104.46s-105.43,46.33-108,104.46c33.9-2.06,70.23-3.17,108-3.17S265.41,389.28,299.31,391.34Z"/><path class="cls-2" d="M145.37,541.81c12.34.65,24,3,36,4.36,4,.47,8,.84,12.16,1,31.05-.23,63.26,4.09,92.93-5A99.54,99.54,0,0,0,299,537.46C286,492,263,449.4,251.21,403.21c-1.22-5.22-2.25-10.45-3-15.74a160.9,160.9,0,0,1-1.57-16.08c0-2.57.19-5.15.45-7.73.12-1.29.27-2.58.44-3.85a34.76,34.76,0,0,0,2.67-6.36c2.88-10.1,7.88-20.52.88-29-12-14.2-32-17-49.69-14.25-2.6.33-5.18.6-7.71.68a38.77,38.77,0,0,1-7.42-.41,71.51,71.51,0,0,0-8.7-.57c-11.47,0-22.31,3.23-31.69,12.34,5.7,23.49,8.15,47.08,8.77,70.74.15,5.92.19,11.83.17,17.73-.73,21.69-.73,42.52-3.48,63.92q-.61,5.78-1.22,11.55l-1.2,11.55c-.29,2.89-.58,5.78-.84,8.63-.31,10.8-3.84,21.21-2.67,31.95C145.36,540.54,145.37,541.81,145.37,541.81Z"/><path class="cls-2" d="M274.79,360.57c-5.75-11.3-11.75-22.3-20.88-30.63-1.42-1.37-2.88-2.69-4.38-3.94-7.49-6.23-16-10.73-25.49-11.73-9-1-12,9-16.39,16.28a34.47,34.47,0,0,1-3.44,5.15L199,340.88l13.9,13.9,3.47,3.47a60.58,60.58,0,0,0,15,13.13,54.55,54.55,0,0,0,5.81,3.07c12.85,7.82,26.85-.18,35.41-9.28A13,13,0,0,0,274.79,360.57Z"/><ellipse class="cls-2" cx="191.34" cy="537.79" rx="107.7" ry="14.29"/><ellipse class="cls-2" cx="240.52" cy="338.48" rx="19.61" ry="40.81" transform="translate(-174.63 346.82) rotate(-55.75)"/><path class="cls-2" d="M108.14,360.57c5.75-11.3,11.75-22.3,20.88-30.63,1.42-1.37,2.88-2.69,4.38-3.94,7.49-6.23,16-10.73,25.49-11.73,9-1,12,9,16.39,16.28a34.47,34.47,0,0,0,3.44,5.15l5.18,5.18L170,354.78l-3.47,3.47a60.58,60.58,0,0,1-15,13.13,54.55,54.55,0,0,1-5.81,3.07c-12.85,7.82-26.85-.18-35.41-9.28A13,13,0,0,1,108.14,360.57Z"/><ellipse class="cls-2" cx="142.41" cy="338.48" rx="40.81" ry="19.61" transform="translate(-165.79 138.82) rotate(-34.25)"/><path class="cls-2" d="M237.31,541.81c-12.34.65-24,3-36,4.36-4,.47-8,.84-12.16,1-31.05-.23-63.26,4.09-92.93-5a99.54,99.54,0,0,1-12.55-4.75c13-45.45,36-88.06,47.83-134.25,1.22-5.22,2.25-10.45,3-15.74a160.9,160.9,0,0,0,1.57-16.08c0-2.57-.19-5.15-.45-7.73-.12-1.29-.27-2.58-.44-3.85a34.76,34.76,0,0,1-2.67-6.36c-2.88-10.1-7.88-20.52-.88-29,12-14.2,32-17,49.69-14.25,2.6.33,5.18.6,7.71.68a38.77,38.77,0,0,0,7.42-.41,71.51,71.51,0,0,1,8.7-.57c11.47,0,22.31,3.23,31.69,12.34-5.7,23.49-8.15,47.08-8.77,70.74-.15,5.92-.19,11.83-.17,17.73.73,21.69.73,42.52,3.48,63.92q.62,5.78,1.22,11.55t1.19,11.55c.3,2.89.59,5.78.85,8.63.31,10.8,3.84,21.21,2.67,31.95C237.32,540.54,237.31,541.81,237.31,541.81Z"/><path class="cls-5" d="M192.12,282.86c-9.35,0-17,5.7-17,12.68v19.89c0,7,7.64,12.69,17,12.69s17-5.71,17-12.69V295.54C209.11,288.56,201.46,282.86,192.12,282.86Z"/><path class="cls-1" d="M212.31,367.3a11.3,11.3,0,0,0-20.19-7,11.29,11.29,0,0,0-18.05,13.56h0l.06.06a11.15,11.15,0,0,0,2.25,2.3l15.69,16.09,15.36-15.73A11.31,11.31,0,0,0,212.31,367.3Z"/><circle class="cls-6" cx="380" cy="576.85" r="64.84"/><rect class="cls-3" x="401.01" y="518.02" width="78.11" height="6.56" rx="3.28" transform="translate(-239.72 463.86) rotate(-45)"/><circle class="cls-4" cx="350.25" cy="549.77" r="4.71"/><circle class="cls-4" cx="344.71" cy="572.64" r="4.71"/><circle class="cls-4" cx="344.71" cy="596.64" r="4.71"/><path class="cls-7" d="M373,574.37l-.15.63,20.06,4.7.15-.63c5.12-21.87,6.95-40.29,4.28-42.3l-20.06-4.7C379.94,534.08,378.11,552.5,373,574.37Z"/><rect class="cls-7" x="372.57" y="573.45" width="20.6" height="7.79" rx="1.98" transform="translate(623.99 1226.79) rotate(-166.82)"/><rect class="cls-8" x="407.61" y="517.97" width="16.16" height="3.96" rx="1.98" transform="translate(379.2 -144.74) rotate(35.5)"/><rect class="cls-8" x="336.63" y="518.42" width="16.16" height="3.96" rx="1.98" transform="translate(912.49 779.74) rotate(148.07)"/><path class="cls-9" d="M396.6,580.84c0,.25.09.49.14.74L417,577.9c-.05-.25-.09-.49-.13-.74-4.63-25.46-10.79-45.84-14.07-46.83L382.54,534C385.82,535,392,555.38,396.6,580.84Z"/><path class="cls-8" d="M338.26,525.13a61.68,61.68,0,0,0,83.48,0,73,73,0,0,0-83.48,0Z"/><rect class="cls-9" x="396.77" y="576.79" width="20.6" height="7.79" rx="1.98" transform="translate(-94.36 79.22) rotate(-9.97)"/><circle class="cls-6" cx="380" cy="473.05" r="54.73"/><circle class="cls-4" cx="348.91" cy="469.51" r="5.1"/><circle class="cls-4" cx="376.88" cy="473.05" r="5.1"/><circle class="cls-4" cx="372.93" cy="503.27" r="2.73"/><circle class="cls-4" cx="365.84" cy="505.91" r="2.73"/><circle class="cls-4" cx="358.02" cy="505.62" r="2.73"/><circle class="cls-4" cx="351.38" cy="502.64" r="2.73"/><circle class="cls-4" cx="346.77" cy="496.82" r="2.73"/><path class="cls-8" d="M325.73,485.72l33.69,8.21a2.15,2.15,0,0,0,2.48-2.11l.93-10.24a2.15,2.15,0,0,0-2.06-2.52l-34.62,2C323.78,481.24,323.43,485.16,325.73,485.72Z"/><ellipse class="cls-8" cx="360.85" cy="486.61" rx="7.53" ry="6.5" transform="translate(-156.26 802.19) rotate(-84.84)"/><circle class="cls-4" cx="191.31" cy="183.38" r="106.21"/><ellipse class="cls-10" cx="191.31" cy="201.21" rx="96.21" ry="105.47"/><circle class="cls-4" cx="163.12" cy="210.57" r="6.44"/><circle class="cls-4" cx="218.97" cy="210.57" r="6.44"/><path class="cls-8" d="M192.12,279c15.26,0,27.63-7,27.63-15.74H164.49C164.49,272,176.86,279,192.12,279Z"/><g class="cls-11"><path class="cls-12" d="M148.24,197.65c2.63-3.54,7.43-5.13,11.64-5.67a24.84,24.84,0,0,1,13.34,2c.87.39,1.63-.9.75-1.29a26.38,26.38,0,0,0-14.71-2.11c-4.6.66-9.46,2.48-12.31,6.32-.58.77.72,1.52,1.29.76Z"/></g><g class="cls-11"><path class="cls-12" d="M236.44,196.89c-2.85-3.84-7.71-5.66-12.31-6.32a26.38,26.38,0,0,0-14.71,2.11c-.88.39-.12,1.68.75,1.29a24.84,24.84,0,0,1,13.34-2c4.21.54,9,2.13,11.64,5.67.57.76,1.87,0,1.29-.76Z"/></g><circle class="cls-13" cx="143.66" cy="237.69" r="15.05"/><circle class="cls-13" cx="238.96" cy="238.7" r="15.05"/><path class="cls-14" d="M192.12,272.55c12.54,0,23.25-3.84,27.63-9.27H164.49C168.87,268.71,179.58,272.55,192.12,272.55Z"/><path class="cls-13" d="M192.12,233.62c4.13,0,7.65,3.84,9.09,9.27H183C184.47,237.46,188,233.62,192.12,233.62Z"/><path class="cls-4" d="M296.71,180.29C294.2,122.16,248,75.83,191.31,75.83S88.41,122.16,85.91,180.29c33.09-2,68.53-3.17,105.4-3.17S263.62,178.24,296.71,180.29Z"/><polygon class="cls-10" points="117.12 175.81 126.05 179.66 108.6 180.51 117.12 175.81"/><polygon class="cls-10" points="126.34 174.89 135.27 178.74 117.82 179.59 126.34 174.89"/><polygon class="cls-10" points="138.24 174.71 147.18 178.56 129.72 179.41 138.24 174.71"/><polygon class="cls-10" points="178.98 173.29 187.72 177.57 170.24 177.57 178.98 173.29"/><polygon class="cls-10" points="190.82 174.29 199.56 178.57 182.08 178.57 190.82 174.29"/><polygon class="cls-10" points="203.64 174.29 212.38 178.57 194.9 178.57 203.64 174.29"/><polygon class="cls-10" points="267.15 175.82 258.18 179.6 275.63 180.58 267.15 175.82"/><polygon class="cls-10" points="256.94 174.82 247.97 178.6 265.42 179.58 256.94 174.82"/><polygon class="cls-10" points="244.03 174.55 235.07 178.33 252.52 179.31 244.03 174.55"/><polygon class="cls-10" points="217.84 173.6 226.58 177.88 209.11 177.88 217.84 173.6"/><polygon class="cls-10" points="229.69 174.6 238.42 178.88 220.95 178.88 229.69 174.6"/><polygon class="cls-10" points="162.6 173.48 153.86 177.76 171.33 177.76 162.6 173.48"/><polygon class="cls-10" points="150.76 174.48 142.02 178.76 159.49 178.76 150.76 174.48"/><polygon class="cls-10" points="277.49 176.87 268.53 180.65 285.98 181.63 277.49 176.87"/><polygon class="cls-10" points="106.19 175.5 115.15 179.28 97.71 180.26 106.19 175.5"/><path class="cls-2" d="M303.73,183C301.07,112.78,251.9,56.8,191.64,56.8S82.21,112.78,79.55,183c35.19-2.48,72.89-3.83,112.09-3.83S268.54,180.53,303.73,183Z"/><path class="cls-1" d="M191.18,180.23c36.46-.51,73.16,2,111.22,9.89,1.87,1,4.67-1,4.1-5.08V157.33a6.23,6.23,0,0,0-6-6.41c-36.44-4.4-72.87-7.35-109.34-7.72Z"/><path class="cls-1" d="M191.18,180.23c-36.46-.51-73.16,2-111.21,9.89-1.87,1-4.67-1-4.11-5.08V157.33a6.22,6.22,0,0,1,6-6.41c36.43-4.4,72.87-7.35,109.33-7.72Z"/><path class="cls-1" d="M268,450.23c-4.42,14.59,6.76,30,22.65,27.21a13.84,13.84,0,0,0,4.14-2.38,25.85,25.85,0,0,0,5.34-8.16,34.22,34.22,0,0,0,1.71-5c2.11-7.95,1.22-16.88-5.15-22.07a16.11,16.11,0,0,0-4.62-2.34c-8.46-1.66-16.61,2.05-22.24,8.07A25.34,25.34,0,0,0,268,450.23Z"/><rect class="cls-2" x="252.59" y="339.15" width="36.39" height="110.06" rx="18.2" transform="translate(-112.97 108.82) rotate(-18.88)"/><path class="cls-1" d="M114.92,450.23c4.42,14.59-6.76,30-22.65,27.21a13.84,13.84,0,0,1-4.14-2.38,26,26,0,0,1-5.34-8.16,34.22,34.22,0,0,1-1.71-5C79,453.92,79.86,445,86.23,439.8a16.11,16.11,0,0,1,4.62-2.34c8.46-1.66,16.61,2.05,22.24,8.07A25.34,25.34,0,0,1,114.92,450.23Z"/><rect class="cls-2" x="93.89" y="339.15" width="36.39" height="110.06" rx="18.2" transform="translate(90.61 803.42) rotate(-161.12)"/><path class="cls-2" d="M196.78,596.39c6.93,6,18.55,4.45,26.28.78,6.44-4.22,5.08,4.29,6,8,6.22,6.18,17.78,5.74,23.79,12.91,5,4.88,4.87,14-.52,18.58-10.51,4.23-23.1-.08-34.15-.68-9.76-1.74-25.57-3.5-24-16.79-.36-7.31-1.63-16.32,1.17-22.9"/></g></svg>