<svg xmlns="http://www.w3.org/2000/svg" viewBox="0 0 500 670"><defs><style>.cls-1,.cls-12{fill:#454c50;}.cls-2{fill:#d3bbb2;}.cls-3{fill:#38858d;}.cls-4{fill:#385a8d;}.cls-5{fill:#c4aea7;}.cls-6{fill:#aa6155;}.cls-7{opacity:0.5;}.cls-8{fill:#c18872;}.cls-9{fill:#ce5252;opacity:0.1;}.cls-10{fill:#fff;}.cls-11{fill:#cec46a;}.cls-12{opacity:0.9;}</style></defs><g id="Layer_1" data-name="Layer 1"><rect class="cls-1" x="85.1" y="183.38" width="212.42" height="206.06"/><circle class="cls-1" cx="191.31" cy="183.38" r="106.21"/><path class="cls-2" d="M185.39,617.47c-8.72,2.67-15.92,1.51-24.26,1.83-.52-44.54-11.65-85.79-18.12-130.09-4.79-31.44-11.32-77.17,15.54-92.58,5.84-3.1,15.49-.59,16.9,5.1,15.53,62.64,13.13,124.53,10.94,188.56C185.82,607.48,185.39,617.47,185.39,617.47Z"/><path class="cls-3" d="M189.84,609.17a42.9,42.9,0,0,1,1,13.71,19.42,19.42,0,0,1-.17,2.69,10.59,10.59,0,0,1-.6,2.39q-2.1,1.41-4.58,2.75a51,51,0,0,1-5.44,2.51c-14,4.14-34,12.14-44-2.86-3-5,0-11,3.57-13.85a22.41,22.41,0,0,1,4.25-3.51,17,17,0,0,1,4.72-2.12c1.56-.56,3.21-1.24,4.91-2,.84-.36,1.69-.73,2.55-1.12a6.15,6.15,0,0,1,4-2.42c3,1,6,2.5,9,3.4a14.35,14.35,0,0,0,4.46.72c2.46-.42,5-2,7.34-3.11a19.1,19.1,0,0,1,2.29-1c1.94,0,5.94,0,6.43,3.11Z"/><path class="cls-2" d="M198.85,617.47c8.72,2.67,15.92,1.51,24.26,1.83.52-44.54,11.65-85.79,18.12-130.09,4.79-31.44,11.32-77.17-15.54-92.58-5.85-3.1-15.49-.59-16.9,5.1-15.53,62.64-13.13,124.53-10.94,188.56C198.41,607.48,198.85,617.47,198.85,617.47Z"/><path class="cls-1" d="M299.31,391.34c-2.57-58.13-49.94-104.46-108-104.46s-105.43,46.33-108,104.46c33.9-2.06,70.23-3.17,108-3.17S265.41,389.28,299.31,391.34Z"/><path class="cls-2" d="M231.51,446.31a12.53,12.53,0,0,0,2.29,10.31c2.13,2.53,5.38,3.53,9.38,1a76.24,76.24,0,0,0,7.64-7.61c20.36-23.39,25.36-58.39,14.36-86.39-3-10-12-19-24-19-3,0-5,4-4,6,4,30,17,63-2.32,89.18C232.58,444.08,231.51,446.31,231.51,446.31Z"/><path class="cls-2" d="M151.42,446.31a12.53,12.53,0,0,1-2.29,10.31c-2.13,2.53-5.38,3.53-9.38,1a76.24,76.24,0,0,1-7.64-7.61c-20.36-23.39-25.36-58.39-14.36-86.39,3-10,12-19,24-19,3,0,5,4,4,6-4,30-17,63,2.32,89.18C150.35,444.08,151.42,446.31,151.42,446.31Z"/><path class="cls-4" d="M145.37,541.81c12.34.65,24,3,36,4.36,4,.47,8,.84,12.16,1,31.05-.23,63.26,4.09,92.93-5A99.54,99.54,0,0,0,299,537.46C286,492,263,449.4,251.21,403.21c-1.22-5.22-2.25-10.45-3-15.74a160.9,160.9,0,0,1-1.57-16.08c0-2.57.19-5.15.45-7.73.12-1.29.27-2.58.44-3.85a34.76,34.76,0,0,0,2.67-6.36c2.88-10.1,7.88-20.52.88-29-12-14.2-32-17-49.69-14.25-2.6.33-5.18.6-7.71.68a38.77,38.77,0,0,1-7.42-.41,71.51,71.51,0,0,0-8.7-.57c-11.47,0-22.31,3.23-31.69,12.34,5.7,23.49,8.15,47.08,8.77,70.74.15,5.92.19,11.83.17,17.73-.73,21.69-.73,42.52-3.48,63.92q-.61,5.78-1.22,11.55l-1.2,11.55c-.29,2.89-.58,5.78-.84,8.63-.31,10.8-3.84,21.21-2.67,31.95C145.36,540.54,145.37,541.81,145.37,541.81Z"/><path class="cls-4" d="M274.79,360.57c-5.75-11.3-11.75-22.3-20.88-30.63-1.42-1.37-2.88-2.69-4.38-3.94-7.49-6.23-16-10.73-25.49-11.73-9-1-12,9-16.39,16.28a34.47,34.47,0,0,1-3.44,5.15L199,340.88l13.9,13.9,3.47,3.47a60.58,60.58,0,0,0,15,13.13,54.55,54.55,0,0,0,5.81,3.07c12.85,7.82,26.85-.18,35.41-9.28A13,13,0,0,0,274.79,360.57Z"/><ellipse class="cls-4" cx="191.34" cy="537.79" rx="107.7" ry="14.29"/><ellipse class="cls-4" cx="240.52" cy="338.48" rx="19.61" ry="40.81" transform="translate(-174.63 346.82) rotate(-55.75)"/><path class="cls-4" d="M108.14,360.57c5.75-11.3,11.75-22.3,20.88-30.63,1.42-1.37,2.88-2.69,4.38-3.94,7.49-6.23,16-10.73,25.49-11.73,9-1,12,9,16.39,16.28a34.47,34.47,0,0,0,3.44,5.15l5.18,5.18L170,354.78l-3.47,3.47a60.58,60.58,0,0,1-15,13.13,54.55,54.55,0,0,1-5.81,3.07c-12.85,7.82-26.85-.18-35.41-9.28A13,13,0,0,1,108.14,360.57Z"/><ellipse class="cls-4" cx="142.41" cy="338.48" rx="40.81" ry="19.61" transform="translate(-165.79 138.82) rotate(-34.25)"/><path class="cls-4" d="M237.31,541.81c-12.34.65-24,3-36,4.36-4,.47-8,.84-12.16,1-31.05-.23-63.26,4.09-92.93-5a99.54,99.54,0,0,1-12.55-4.75c13-45.45,36-88.06,47.83-134.25,1.22-5.22,2.25-10.45,3-15.74a160.9,160.9,0,0,0,1.57-16.08c0-2.57-.19-5.15-.45-7.73-.12-1.29-.27-2.58-.44-3.85a34.76,34.76,0,0,1-2.67-6.36c-2.88-10.1-7.88-20.52-.88-29,12-14.2,32-17,49.69-14.25,2.6.33,5.18.6,7.71.68a38.77,38.77,0,0,0,7.42-.41,71.51,71.51,0,0,1,8.7-.57c11.47,0,22.31,3.23,31.69,12.34-5.7,23.49-8.15,47.08-8.77,70.74-.15,5.92-.19,11.83-.17,17.73.73,21.69.73,42.52,3.48,63.92q.62,5.78,1.22,11.55t1.19,11.55c.3,2.89.59,5.78.85,8.63.31,10.8,3.84,21.21,2.67,31.95C237.32,540.54,237.31,541.81,237.31,541.81Z"/><path class="cls-5" d="M192.12,282.86c-9.35,0-17,5.7-17,12.68v19.89c0,7,7.64,12.69,17,12.69s17-5.71,17-12.69V295.54C209.11,288.56,201.46,282.86,192.12,282.86Z"/><ellipse class="cls-2" cx="191.31" cy="201.21" rx="96.21" ry="105.47"/><circle class="cls-1" cx="163.12" cy="210.57" r="6.44"/><circle class="cls-1" cx="218.97" cy="210.57" r="6.44"/><path class="cls-6" d="M192.12,279c15.26,0,27.63-7,27.63-15.74H164.49C164.49,272,176.86,279,192.12,279Z"/><g class="cls-7"><path class="cls-8" d="M148.24,197.65c2.63-3.54,7.43-5.13,11.64-5.67a24.84,24.84,0,0,1,13.34,2c.87.39,1.63-.9.75-1.29a26.38,26.38,0,0,0-14.71-2.11c-4.6.66-9.46,2.48-12.31,6.32-.58.77.72,1.52,1.29.76Z"/></g><g class="cls-7"><path class="cls-8" d="M236.44,196.89c-2.85-3.84-7.71-5.66-12.31-6.32a26.38,26.38,0,0,0-14.71,2.11c-.88.39-.12,1.68.75,1.29a24.84,24.84,0,0,1,13.34-2c4.21.54,9,2.13,11.64,5.67.57.76,1.87,0,1.29-.76Z"/></g><circle class="cls-9" cx="143.66" cy="237.69" r="15.05"/><circle class="cls-9" cx="238.96" cy="238.7" r="15.05"/><path class="cls-10" d="M192.12,272.55c12.54,0,23.25-3.84,27.63-9.27H164.49C168.87,268.71,179.58,272.55,192.12,272.55Z"/><path class="cls-9" d="M192.12,233.62c4.13,0,7.65,3.84,9.09,9.27H183C184.47,237.46,188,233.62,192.12,233.62Z"/><path class="cls-1" d="M296.71,180.29C294.2,122.16,248,75.83,191.31,75.83S88.41,122.16,85.91,180.29c33.09-2,68.53-3.17,105.4-3.17S263.62,178.24,296.71,180.29Z"/><polygon class="cls-2" points="117.12 175.81 126.05 179.66 108.6 180.51 117.12 175.81"/><polygon class="cls-2" points="126.34 174.89 135.27 178.74 117.82 179.59 126.34 174.89"/><polygon class="cls-2" points="138.24 174.71 147.18 178.56 129.72 179.41 138.24 174.71"/><polygon class="cls-2" points="178.98 173.29 187.72 177.57 170.24 177.57 178.98 173.29"/><polygon class="cls-2" points="190.82 174.29 199.56 178.57 182.08 178.57 190.82 174.29"/><polygon class="cls-2" points="203.64 174.29 212.38 178.57 194.9 178.57 203.64 174.29"/><polygon class="cls-2" points="267.15 175.82 258.18 179.6 275.63 180.58 267.15 175.82"/><polygon class="cls-2" points="256.94 174.82 247.97 178.6 265.42 179.58 256.94 174.82"/><polygon class="cls-2" points="244.03 174.55 235.07 178.33 252.52 179.31 244.03 174.55"/><polygon class="cls-2" points="217.84 173.6 226.58 177.88 209.11 177.88 217.84 173.6"/><polygon class="cls-2" points="229.69 174.6 238.42 178.88 220.95 178.88 229.69 174.6"/><polygon class="cls-2" points="162.6 173.48 153.86 177.76 171.33 177.76 162.6 173.48"/><polygon class="cls-2" points="150.76 174.48 142.02 178.76 159.49 178.76 150.76 174.48"/><polygon class="cls-2" points="277.49 176.87 268.53 180.65 285.98 181.63 277.49 176.87"/><polygon class="cls-2" points="106.19 175.5 115.15 179.28 97.71 180.26 106.19 175.5"/><path class="cls-3" d="M212.31,367.3a11.3,11.3,0,0,0-20.19-7,11.29,11.29,0,0,0-18.05,13.56h0l.06.06a11.15,11.15,0,0,0,2.25,2.3l15.69,16.09,15.36-15.73A11.31,11.31,0,0,0,212.31,367.3Z"/><path class="cls-3" d="M194.4,609.17a42.9,42.9,0,0,0-1,13.71,19.42,19.42,0,0,0,.17,2.69,11.15,11.15,0,0,0,.59,2.39c1.4.94,2.94,1.86,4.59,2.75a51,51,0,0,0,5.44,2.51c14,4.14,34,12.14,44-2.86,3-5,0-11-3.57-13.85A22.41,22.41,0,0,0,240.3,613a17,17,0,0,0-4.72-2.12c-1.57-.56-3.21-1.24-4.91-2-.84-.36-1.7-.73-2.55-1.12a6.15,6.15,0,0,0-4-2.42c-3,1-6,2.5-9,3.4a14.35,14.35,0,0,1-4.46.72c-2.46-.42-5-2-7.34-3.11a19.21,19.21,0,0,0-2.3-1c-1.93,0-5.93,0-6.42,3.11Z"/><circle class="cls-11" cx="398.37" cy="64.4" r="60.15"/><path class="cls-12" d="M251.93,194.64v14.43a25.77,25.77,0,0,1-51.54,0V194.64Z"/><path class="cls-12" d="M130.91,194.64v14.43a25.78,25.78,0,0,0,51.55,0V194.64Z"/><path class="cls-4" d="M195.54,190.86V208a30.62,30.62,0,1,0,61.24,0V190.86Zm56.39,18.21a25.77,25.77,0,0,1-51.54,0V194.64h51.54Z"/><path class="cls-4" d="M126.07,190.86V208a30.62,30.62,0,0,0,61.24,0V190.86Zm56.39,18.21a25.78,25.78,0,0,1-51.55,0V194.64h51.55Z"/><path class="cls-4" d="M200.39,206.78V190.86h-18v15.92c2.32-3.71,5.49-6,9-6S198.06,203.07,200.39,206.78Z"/><path class="cls-4" d="M95.09,197.28l31.12-.48a3.2,3.2,0,0,0,3-3h0a2.57,2.57,0,0,0-2.51-2.93l-31.12.48a3.19,3.19,0,0,0-2.94,3h0A2.57,2.57,0,0,0,95.09,197.28Z"/><path class="cls-4" d="M126.63,199.73c-6.91-1.88-18.66-3-32.08-2.82l.4-5.32,32.32-.44Z"/><path class="cls-4" d="M287.68,197.28l-31.12-.48a3.19,3.19,0,0,1-2.94-3h0a2.57,2.57,0,0,1,2.5-2.93l31.12.48a3.19,3.19,0,0,1,2.94,3h0A2.57,2.57,0,0,1,287.68,197.28Z"/><path class="cls-4" d="M256.14,199.73c6.91-1.88,18.66-3,32.09-2.82l-.4-5.32-32.33-.44Z"/></g></svg>