<svg xmlns="http://www.w3.org/2000/svg" viewBox="0 0 500 670"><defs><style>.cls-1{fill:#2e7070;}.cls-2{fill:#347f7f;}.cls-3{fill:#454c50;}.cls-4{fill:#d3bbb2;}.cls-5{fill:#385a8d;}.cls-6{fill:#c4aea7;}.cls-7{opacity:0.5;}.cls-8{fill:#c18872;}.cls-9{fill:#ce5252;opacity:0.1;}.cls-10{fill:#38858d;}.cls-11{fill:#768287;}.cls-12{fill:#358084;}.cls-13{fill:#3d9599;}.cls-14{fill:#cec46a;}.cls-15{fill:#aa6155;}.cls-16{fill:#5c6568;}</style></defs><g id="Layer_1" data-name="Layer 1"><path class="cls-1" d="M134.2,57.83h0C40.41,90.93-9.9,187.49,21.82,273.5c7.69,20.85,89.95,10.92,183.74-22.17h0Z"/><path class="cls-2" d="M67.56,97.94c-.74,30.94,6.52,71.07,21.93,112.85a379.23,379.23,0,0,0,31,65.08,720.85,720.85,0,0,0,85.05-24.54L134.2,57.83A190.76,190.76,0,0,0,67.56,97.94Z"/><path class="cls-2" d="M134.2,57.83h0c93.78-33.1,195.53,9.8,227.25,95.81,7.69,20.86-62.11,64.59-155.89,97.69h0Z"/><path class="cls-1" d="M211.66,47.09c20.77,23.35,41.37,58.77,56.78,100.54A375.76,375.76,0,0,1,287,217.1a716.06,716.06,0,0,1-81.47,34.23L134.2,57.83A193.69,193.69,0,0,1,211.66,47.09Z"/><rect class="cls-3" x="84.43" y="183.84" width="212.42" height="206.06"/><circle class="cls-3" cx="190.64" cy="183.84" r="106.21"/><path class="cls-4" d="M182.72,617.93c-8.72,2.67-15.93,1.51-24.27,1.83-.51-44.54-11.64-85.79-18.12-130.09-4.78-31.43-11.31-77.17,15.54-92.58,5.85-3.09,15.49-.59,16.91,5.1,15.53,62.64,13.13,124.53,10.94,188.56C183.15,607.94,182.72,617.93,182.72,617.93Z"/><path class="cls-4" d="M200.17,617.93c8.72,2.67,15.93,1.51,24.27,1.83.51-44.54,11.64-85.79,18.12-130.09,4.79-31.43,11.31-77.17-15.54-92.58-5.85-3.09-15.49-.59-16.9,5.1C194.59,464.83,197,526.72,199.18,590.75,199.74,607.94,200.17,617.93,200.17,617.93Z"/><path class="cls-3" d="M298.64,391.8c-2.57-58.13-49.94-104.46-108-104.46S85.21,333.67,82.64,391.8c33.9-2.06,70.22-3.17,108-3.17S264.73,389.74,298.64,391.8Z"/><path class="cls-4" d="M150.75,446.77a12.53,12.53,0,0,1-2.29,10.31c-2.13,2.53-5.38,3.53-9.38,1a75.2,75.2,0,0,1-7.64-7.61c-20.36-23.39-25.36-58.39-14.36-86.39,3-10,12-19,24-19,3,0,5,4,4,6-4,30-17,63,2.31,89.18C149.68,444.54,150.75,446.77,150.75,446.77Z"/><path class="cls-4" d="M276.09,357.7c2.55,13,19.9,44.85.12,52-10.29,3.51-26.86-39.89-31.06-48.64"/><path class="cls-5" d="M144.7,542.27c12.34.65,24,3,36,4.36,4,.47,8,.84,12.15,1,31.05-.23,63.26,4.09,92.94-5a101.78,101.78,0,0,0,12.55-4.76c-13-45.45-36-88.06-47.83-134.25-1.22-5.22-2.25-10.45-3-15.74a158,158,0,0,1-1.57-16.08c0-2.57.19-5.15.44-7.73.13-1.29.28-2.58.44-3.85a34.13,34.13,0,0,0,2.68-6.36c2.88-10.1,7.88-20.51.88-29-12-14.2-32-17-49.7-14.25-2.6.34-5.17.6-7.7.68a38.77,38.77,0,0,1-7.42-.41,71.54,71.54,0,0,0-8.71-.57c-11.47,0-22.3,3.23-31.68,12.34,5.69,23.49,8.15,47.08,8.77,70.74.15,5.92.19,11.83.16,17.73-.72,21.69-.72,42.52-3.47,63.92q-.62,5.77-1.22,11.55l-1.2,11.55c-.29,2.89-.58,5.78-.84,8.63-.31,10.8-3.84,21.21-2.67,32C144.68,541,144.7,542.27,144.7,542.27Z"/><path class="cls-5" d="M276,367.53c-4.42-11.88-9.12-23.5-17.25-32.81q-1.87-2.3-3.89-4.41c-6.73-7.05-14.66-12.5-24-14.57-8.82-2-12.95,7.57-18.14,14.3a33.86,33.86,0,0,1-4,4.73L203,339.32l12.22,15.4,3.05,3.84a60.39,60.39,0,0,0,13.38,14.75,51.51,51.51,0,0,0,5.43,3.71c11.87,9.24,26.69,2.89,36.23-5.17A13,13,0,0,0,276,367.53Z"/><ellipse class="cls-5" cx="190.67" cy="538.25" rx="107.7" ry="14.29"/><ellipse class="cls-5" cx="244.46" cy="341.67" rx="19.61" ry="40.81" transform="translate(-173.92 303.46) rotate(-49.2)"/><path class="cls-5" d="M107.47,361c5.74-11.3,11.74-22.3,20.88-30.63,1.42-1.37,2.88-2.69,4.37-3.94,7.49-6.23,16-10.73,25.49-11.73,9-1,12,9,16.39,16.28a34.52,34.52,0,0,0,3.45,5.15l5.17,5.18-13.89,13.9c-1.13,1.13-2.29,2.28-3.47,3.47a60.76,60.76,0,0,1-15,13.13,54.55,54.55,0,0,1-5.81,3.07c-12.86,7.82-26.86-.18-35.41-9.28A12.88,12.88,0,0,1,107.47,361Z"/><ellipse class="cls-5" cx="141.74" cy="338.94" rx="40.81" ry="19.61" transform="translate(-166.16 138.52) rotate(-34.25)"/><path class="cls-5" d="M236.64,542.27c-12.34.65-24,3-36,4.36-4,.47-8,.84-12.16,1-31-.23-63.26,4.09-92.93-5A101.92,101.92,0,0,1,83,537.92c13-45.45,36-88.06,47.84-134.25,1.21-5.22,2.25-10.45,3-15.74a155.2,155.2,0,0,0,1.57-16.08c0-2.57-.19-5.15-.44-7.73-.13-1.29-.27-2.58-.44-3.85a33.42,33.42,0,0,1-2.67-6.36c-2.89-10.1-7.89-20.51-.89-29,12-14.2,32-17,49.7-14.25,2.6.34,5.18.6,7.71.68a38.62,38.62,0,0,0,7.41-.41,71.67,71.67,0,0,1,8.71-.57c11.47,0,22.31,3.23,31.69,12.34-5.7,23.49-8.16,47.08-8.77,70.74-.16,5.92-.2,11.83-.17,17.73.72,21.69.72,42.52,3.48,63.92q.6,5.77,1.21,11.55c.4,3.85.81,7.7,1.2,11.55.3,2.89.58,5.78.84,8.63.32,10.8,3.84,21.21,2.68,32C236.65,541,236.64,542.27,236.64,542.27Z"/><path class="cls-6" d="M191.45,283.32c-9.35,0-17,5.7-17,12.68v19.9c0,7,7.64,12.68,17,12.68s17-5.71,17-12.68V296C208.43,289,200.79,283.32,191.45,283.32Z"/><ellipse class="cls-4" cx="190.64" cy="201.67" rx="96.21" ry="105.47"/><g class="cls-7"><path class="cls-8" d="M144.66,202.43c1.21-4.39,5.18-7.64,9.05-9.7a24.8,24.8,0,0,1,13-2.85c1,.05,1-1.45,0-1.5a26.28,26.28,0,0,0-14.11,3.23c-4.09,2.25-8.14,5.77-9.42,10.42a.75.75,0,0,0,1.45.4Z"/></g><g class="cls-7"><path class="cls-8" d="M238.83,202c-1.28-4.65-5.33-8.17-9.41-10.42a26.33,26.33,0,0,0-14.11-3.23c-1,.05-1,1.55,0,1.5a24.76,24.76,0,0,1,13,2.85c3.87,2.06,7.85,5.31,9,9.7a.75.75,0,0,0,1.45-.4Z"/></g><circle class="cls-9" cx="142.98" cy="238.15" r="15.05"/><circle class="cls-9" cx="238.29" cy="239.16" r="15.05"/><path class="cls-9" d="M191.45,234.08c4.12,0,7.65,3.84,9.09,9.27H182.36C183.8,237.92,187.32,234.08,191.45,234.08Z"/><path class="cls-3" d="M296,180.76c-2.51-58.14-48.74-104.47-105.4-104.47S87.74,122.62,85.23,180.76c33.09-2.06,68.54-3.18,105.41-3.18S263,178.7,296,180.76Z"/><polygon class="cls-4" points="116.45 176.28 125.38 180.12 107.93 180.97 116.45 176.28"/><polygon class="cls-4" points="125.66 175.35 134.6 179.2 117.15 180.05 125.66 175.35"/><polygon class="cls-4" points="137.57 175.17 146.5 179.02 129.05 179.87 137.57 175.17"/><polygon class="cls-4" points="178.31 173.75 187.04 178.03 169.57 178.03 178.31 173.75"/><polygon class="cls-4" points="190.15 174.75 198.88 179.03 181.41 179.03 190.15 174.75"/><polygon class="cls-4" points="202.97 174.75 211.71 179.03 194.23 179.03 202.97 174.75"/><polygon class="cls-4" points="266.47 176.28 257.51 180.06 274.96 181.04 266.47 176.28"/><polygon class="cls-4" points="256.26 175.28 247.3 179.06 264.75 180.04 256.26 175.28"/><polygon class="cls-4" points="243.36 175.01 234.4 178.79 251.84 179.77 243.36 175.01"/><polygon class="cls-4" points="217.17 174.06 225.91 178.34 208.44 178.34 217.17 174.06"/><polygon class="cls-4" points="229.01 175.06 237.75 179.34 220.28 179.34 229.01 175.06"/><polygon class="cls-4" points="161.92 173.94 153.19 178.22 170.66 178.22 161.92 173.94"/><polygon class="cls-4" points="150.08 174.94 141.35 179.22 158.82 179.22 150.08 174.94"/><polygon class="cls-4" points="276.82 177.32 267.86 181.11 285.3 182.09 276.82 177.32"/><polygon class="cls-4" points="105.52 175.96 114.48 179.75 97.03 180.72 105.52 175.96"/><path class="cls-10" d="M211.63,367.76a11.29,11.29,0,0,0-20.18-7,11.29,11.29,0,0,0-18.06,13.55h0l.06.06a11.1,11.1,0,0,0,2.24,2.3l15.7,16.09,15.35-15.73A11.29,11.29,0,0,0,211.63,367.76Z"/><path class="cls-4" d="M265.59,356.18c-1.27-1.67-2.51-3.23-3.71-4.65a15.44,15.44,0,0,0-6.39-6.67L244,349.17c7.32,11.16,7.53,26.54,11.7,39.79.38,1.35.75,2.7,1.1,4.05s.69,2.71,1,4.08c1.8,11,18.11,18.2,25.29,7.63C289.7,394.73,277,371.16,265.59,356.18Z"/><rect class="cls-11" x="184.45" y="33.4" width="8.49" height="347.2" rx="4.25" transform="translate(-59.37 76.92) rotate(-19.98)"/><path class="cls-12" d="M197,566.38c.2,7.35.2,13.35-.09,20,0,1.78.06,3.56.08,5.34a250.59,250.59,0,0,1-.77,26.59c-4.51,12.39-3,17.33,12.11,19.72,8.4.79,27.2,5,40.43,3.1.82-.12,1.63-.26,2.41-.42,8-.95,17-6.95,13-15.85a9.71,9.71,0,0,0-1.3-1.53c-3.81-3.65-10.05-4-15.65-5.57a15.59,15.59,0,0,1-2-.66c-3.32-1.33-6.59-3.75-9.51-5.79a19.3,19.3,0,0,1-1.62-1.77,20.52,20.52,0,0,1-3.4-6.13c0-.9-.07-1.77-.1-2.63a103.81,103.81,0,0,1,.86-16.94c.14-1,.3-2,.46-2.91,1.31-6.17,6.31-19.17-3.69-16.17s-20,4-29.27.44"/><path class="cls-12" d="M186.91,566.38c-.2,7.35-.2,13.35.09,20,0,1.78-.05,3.56-.08,5.34a248,248,0,0,0,.78,26.59c4.51,12.39,3,17.33-12.12,19.72-8.4.79-27.2,5-40.42,3.1-.83-.12-1.64-.26-2.42-.42-8-.95-17-6.95-13-15.85a9.26,9.26,0,0,1,1.31-1.53c3.8-3.65,10-4,15.64-5.57a15.09,15.09,0,0,0,2-.66c3.32-1.33,6.59-3.75,9.51-5.79a21,21,0,0,0,1.63-1.77,20.71,20.71,0,0,0,3.39-6.13c0-.9.08-1.77.1-2.63a102.69,102.69,0,0,0-.86-16.94q-.21-1.53-.45-2.91c-1.32-6.17-6.32-19.17,3.68-16.17s20,4,29.27.44"/><path class="cls-10" d="M134.2,57.83l43.51,118c93.79-33.1,176-43,183.74-22.18C329.73,67.63,228,24.73,134.2,57.83Z"/><path class="cls-13" d="M134.2,57.83l43.51,118C83.93,208.91,14.13,252.65,21.82,273.5-9.9,187.49,40.41,90.93,134.2,57.83Z"/><path class="cls-10" d="M177.75,175.92l-43.51-118a194.25,194.25,0,0,0-34.7,16.37C78.6,105.4,73.3,157.92,86.24,215.43,111.62,201.94,143,188.21,177.75,175.92Z"/><path class="cls-13" d="M177.75,175.92l-43.51-118a196.35,196.35,0,0,1,37.39-9.07C208,59.72,246.39,96.83,274,149.18,245.63,154.65,212.49,163.69,177.75,175.92Z"/><rect class="cls-10" x="231.95" y="315.2" width="15.14" height="63.26" rx="5.69" transform="matrix(0.94, -0.34, 0.34, 0.94, -104.08, 102.7)"/><path class="cls-4" d="M250.5,329.94c-10.87-6.92-26-1.35-27.32,12.23a12,12,0,0,0,1,3.91,22.06,22.06,0,0,0,5.43,6.21,29.87,29.87,0,0,0,3.7,2.54c6,3.53,13.46,4.85,19.14.84a13.31,13.31,0,0,0,2.95-3.23c3.29-6.5,2.13-14-1.48-19.94A21.76,21.76,0,0,0,250.5,329.94Z"/><ellipse class="cls-14" cx="387.09" cy="615.26" rx="36.84" ry="28.14"/><path class="cls-14" d="M404.69,594.57c4.5-1.48,9-3.67,12.18-7.22,1.7-1.9,4.88-7.17,7.73-4,2.12,2.39,2.69,7,2.79,10.05a66.5,66.5,0,0,1-.39,11.81c-.61,4.12-2.35,7-4.76,10.35-1.59,2.23-3.19,4.91-6.06,5.54"/><ellipse class="cls-14" cx="370.87" cy="584.38" rx="25.85" ry="27.24"/><path class="cls-15" d="M353.26,582.74a46.78,46.78,0,0,1-5.26,4.41c-.36.22-.74.43-1.12.63a12,12,0,0,1-1.22.51c-1.36.49-6,1-6.39,2.57-.58,2.07,4.65,6.4,6.13,7.53,3,2.26,8.37,5.17,12.35,4.69a11.58,11.58,0,0,0,2.88-.7,8.14,8.14,0,0,0,1.19-.57c2.83-2.21,6.55-4.69,6.24-8.4,0-3.41-4-3.1-6.54-4.37-.28-.14-.56-.3-.83-.46-1.92-1.05-2.53-3.53-4.27-4.6"/><circle class="cls-3" cx="355.17" cy="570.01" r="1.99"/><circle class="cls-3" cx="374.73" cy="572.69" r="1.99"/><circle class="cls-15" cx="191.45" cy="270.79" r="7.05"/><polygon class="cls-14" points="394.32 158.05 385.42 153.15 405.2 88.41 414.1 93.31 394.32 158.05"/><polygon class="cls-14" points="426.52 205.95 421.55 209.65 385.64 152.95 390.61 149.25 426.52 205.95"/><polygon class="cls-14" points="440.27 248.9 421.29 213.47 416.59 216.96 440.27 248.9"/><polygon class="cls-14" points="413.89 260.53 426.5 205.93 417.52 202.79 413.89 260.53"/><polygon class="cls-14" points="439.42 110.53 435.66 115.45 406.71 89.73 410.47 84.81 439.42 110.53"/><polygon class="cls-14" points="464.5 148.01 436.47 119.2 432.92 123.86 464.5 148.01"/><polygon class="cls-14" points="442.36 166.47 439.39 110.51 429.9 109.98 442.36 166.47"/><polygon class="cls-14" points="380.02 170.22 383.23 172.01 388.96 154.1 385.75 152.31 380.02 170.22"/><polygon class="cls-14" points="379.59 193.3 383.97 174.02 387 175.71 379.59 193.3"/><polygon class="cls-14" points="395.34 198.59 380.02 170.21 384.26 168.27 395.34 198.59"/><circle class="cls-3" cx="163.12" cy="210.57" r="6.44"/><circle class="cls-3" cx="218.97" cy="210.57" r="6.44"/><path class="cls-16" d="M306.73,59.33a36.22,36.22,0,0,0-36.22,36.22h72.43A36.22,36.22,0,0,0,306.73,59.33Z"/><path class="cls-16" d="M368.66,39.05a56.5,56.5,0,0,0-56.49,56.5h113A56.5,56.5,0,0,0,368.66,39.05Z"/><path class="cls-16" d="M323.17,46.83a25,25,0,0,0-25,25h50A25,25,0,0,0,323.17,46.83Z"/><path class="cls-16" d="M440,43.91a51.63,51.63,0,0,0-51.63,51.63H491.6A51.63,51.63,0,0,0,440,43.91Z"/><path class="cls-16" d="M399.35,9a45.5,45.5,0,0,0-45.5,45.5h91A45.5,45.5,0,0,0,399.35,9Z"/><path class="cls-16" d="M445.91,31.75a36.19,36.19,0,0,0-36.2,36.19H482.1A36.19,36.19,0,0,0,445.91,31.75Z"/></g></svg>