<svg xmlns="http://www.w3.org/2000/svg" viewBox="0 0 500 670"><defs><style>.cls-1{fill:#2e7070;}.cls-2{fill:#347f7f;}.cls-3{fill:#454c50;}.cls-4{fill:#d3bbb2;}.cls-5{fill:#385a8d;}.cls-6{fill:#c4aea7;}.cls-7{opacity:0.5;}.cls-8{fill:#c18872;}.cls-9{fill:#ce5252;opacity:0.1;}.cls-10{fill:#fff;}.cls-11{fill:#38858d;}.cls-12{fill:#768287;}.cls-13{fill:none;}.cls-14{fill:#358084;}.cls-15{fill:#697377;}.cls-16{fill:#3d9599;}.cls-17{fill:#cec46a;}.cls-18{fill:#aa6155;}</style></defs><g id="Layer_1" data-name="Layer 1"><path class="cls-1" d="M250.35,8.58h0C129.51,15.44,35.4,79.64,40.14,152c1.15,17.54,100,26.2,220.88,19.34h0Z"/><path class="cls-2" d="M158.33,26.2c-12.36,23.62-18.87,55.87-16.57,91a198.91,198.91,0,0,0,11.71,56.12c31.87.8,68.57.21,107.55-2L250.35,8.58A344.13,344.13,0,0,0,158.33,26.2Z"/><path class="cls-2" d="M250.35,8.58h0C371.19,1.73,473,54.81,477.73,127.15c1.15,17.54-95.87,37.31-216.71,44.16h0Z"/><path class="cls-1" d="M344,15.67c15.35,22,26,53.32,28.34,88.45a197.46,197.46,0,0,1-4.3,57c-31.53,4.4-68,7.95-107,10.16L250.35,8.58A346.47,346.47,0,0,1,344,15.67Z"/><rect class="cls-3" x="84.43" y="183.84" width="212.42" height="206.06"/><circle class="cls-3" cx="190.64" cy="183.84" r="106.21"/><path class="cls-4" d="M182.72,617.93c-8.72,2.67-15.93,1.51-24.27,1.83-.51-44.54-11.64-85.79-18.12-130.09-4.78-31.43-11.31-77.17,15.54-92.58,5.85-3.09,15.49-.59,16.91,5.1,15.53,62.64,13.13,124.53,10.94,188.56C183.15,607.94,182.72,617.93,182.72,617.93Z"/><path class="cls-4" d="M200.17,617.93c8.72,2.67,15.93,1.51,24.27,1.83.51-44.54,11.64-85.79,18.12-130.09,4.79-31.43,11.31-77.17-15.54-92.58-5.85-3.09-15.49-.59-16.9,5.1C194.59,464.83,197,526.72,199.18,590.75,199.74,607.94,200.17,617.93,200.17,617.93Z"/><path class="cls-3" d="M298.64,391.8c-2.57-58.13-49.94-104.46-108-104.46S85.21,333.67,82.64,391.8c33.9-2.06,70.22-3.17,108-3.17S264.73,389.74,298.64,391.8Z"/><path class="cls-4" d="M150.75,446.77a12.53,12.53,0,0,1-2.29,10.31c-2.13,2.53-5.38,3.53-9.38,1a75.2,75.2,0,0,1-7.64-7.61c-20.36-23.39-25.36-58.39-14.36-86.39,3-10,12-19,24-19,3,0,5,4,4,6-4,30-17,63,2.31,89.18C149.68,444.54,150.75,446.77,150.75,446.77Z"/><path class="cls-4" d="M276.09,357.7c2.55,13,19.9,44.85.12,52-10.29,3.51-26.86-39.89-31.06-48.64"/><path class="cls-5" d="M144.7,542.27c12.34.65,24,3,36,4.36,4,.47,8,.84,12.15,1,31.05-.23,63.26,4.09,92.94-5a101.78,101.78,0,0,0,12.55-4.76c-13-45.45-36-88.06-47.83-134.25-1.22-5.22-2.25-10.45-3-15.74a158,158,0,0,1-1.57-16.08c0-2.57.19-5.15.44-7.73.13-1.29.28-2.58.44-3.85a34.13,34.13,0,0,0,2.68-6.36c2.88-10.1,7.88-20.51.88-29-12-14.2-32-17-49.7-14.25-2.6.34-5.17.6-7.7.68a38.77,38.77,0,0,1-7.42-.41,71.54,71.54,0,0,0-8.71-.57c-11.47,0-22.3,3.23-31.68,12.34,5.69,23.49,8.15,47.08,8.77,70.74.15,5.92.19,11.83.16,17.73-.72,21.69-.72,42.52-3.47,63.92q-.62,5.77-1.22,11.55l-1.2,11.55c-.29,2.89-.58,5.78-.84,8.63-.31,10.8-3.84,21.21-2.67,32C144.68,541,144.7,542.27,144.7,542.27Z"/><path class="cls-5" d="M276,367.53c-4.42-11.88-9.12-23.5-17.25-32.81q-1.87-2.3-3.89-4.41c-6.73-7.05-14.66-12.5-24-14.57-8.82-2-12.95,7.57-18.14,14.3a33.86,33.86,0,0,1-4,4.73L203,339.32l12.22,15.4,3.05,3.84a60.39,60.39,0,0,0,13.38,14.75,51.51,51.51,0,0,0,5.43,3.71c11.87,9.24,26.69,2.89,36.23-5.17A13,13,0,0,0,276,367.53Z"/><ellipse class="cls-5" cx="190.67" cy="538.25" rx="107.7" ry="14.29"/><ellipse class="cls-5" cx="244.46" cy="341.67" rx="19.61" ry="40.81" transform="translate(-173.92 303.46) rotate(-49.2)"/><path class="cls-5" d="M107.47,361c5.74-11.3,11.74-22.3,20.88-30.63,1.42-1.37,2.88-2.69,4.37-3.94,7.49-6.23,16-10.73,25.49-11.73,9-1,12,9,16.39,16.28a34.52,34.52,0,0,0,3.45,5.15l5.17,5.18-13.89,13.9c-1.13,1.13-2.29,2.28-3.47,3.47a60.76,60.76,0,0,1-15,13.13,54.55,54.55,0,0,1-5.81,3.07c-12.86,7.82-26.86-.18-35.41-9.28A12.88,12.88,0,0,1,107.47,361Z"/><ellipse class="cls-5" cx="141.74" cy="338.94" rx="40.81" ry="19.61" transform="translate(-166.16 138.52) rotate(-34.25)"/><path class="cls-5" d="M236.64,542.27c-12.34.65-24,3-36,4.36-4,.47-8,.84-12.16,1-31-.23-63.26,4.09-92.93-5A101.92,101.92,0,0,1,83,537.92c13-45.45,36-88.06,47.84-134.25,1.21-5.22,2.25-10.45,3-15.74a155.2,155.2,0,0,0,1.57-16.08c0-2.57-.19-5.15-.44-7.73-.13-1.29-.27-2.58-.44-3.85a33.42,33.42,0,0,1-2.67-6.36c-2.89-10.1-7.89-20.51-.89-29,12-14.2,32-17,49.7-14.25,2.6.34,5.18.6,7.71.68a38.62,38.62,0,0,0,7.41-.41,71.67,71.67,0,0,1,8.71-.57c11.47,0,22.31,3.23,31.69,12.34-5.7,23.49-8.16,47.08-8.77,70.74-.16,5.92-.2,11.83-.17,17.73.72,21.69.72,42.52,3.48,63.92q.6,5.77,1.21,11.55c.4,3.85.81,7.7,1.2,11.55.3,2.89.58,5.78.84,8.63.32,10.8,3.84,21.21,2.68,32C236.65,541,236.64,542.27,236.64,542.27Z"/><path class="cls-6" d="M191.45,283.32c-9.35,0-17,5.7-17,12.68v19.9c0,7,7.64,12.68,17,12.68s17-5.71,17-12.68V296C208.43,289,200.79,283.32,191.45,283.32Z"/><ellipse class="cls-4" cx="190.64" cy="201.67" rx="96.21" ry="105.47"/><circle class="cls-3" cx="162.45" cy="211.03" r="6.44"/><circle class="cls-3" cx="218.3" cy="211.03" r="6.44"/><g class="cls-7"><path class="cls-8" d="M147.57,198.11c2.63-3.53,7.43-5.12,11.64-5.67a24.81,24.81,0,0,1,13.33,2c.88.39,1.64-.9.76-1.29A26.4,26.4,0,0,0,158.58,191c-4.59.66-9.45,2.49-12.3,6.32-.58.77.72,1.52,1.29.76Z"/></g><g class="cls-7"><path class="cls-8" d="M235.77,197.35c-2.86-3.83-7.72-5.66-12.31-6.32a26.41,26.41,0,0,0-14.72,2.11c-.87.39-.11,1.69.76,1.29a24.84,24.84,0,0,1,13.34-2c4.21.55,9,2.13,11.63,5.67.57.76,1.88,0,1.3-.76Z"/></g><circle class="cls-9" cx="142.98" cy="238.15" r="15.05"/><circle class="cls-9" cx="238.29" cy="239.16" r="15.05"/><path class="cls-10" d="M191.45,273c12.54,0,23.24-3.84,27.62-9.27H163.82C168.2,269.17,178.9,273,191.45,273Z"/><path class="cls-9" d="M191.45,234.08c4.12,0,7.65,3.84,9.09,9.27H182.36C183.8,237.92,187.32,234.08,191.45,234.08Z"/><path class="cls-3" d="M296,180.76c-2.51-58.14-48.74-104.47-105.4-104.47S87.74,122.62,85.23,180.76c33.09-2.06,68.54-3.18,105.41-3.18S263,178.7,296,180.76Z"/><polygon class="cls-4" points="116.45 176.28 125.38 180.12 107.93 180.97 116.45 176.28"/><polygon class="cls-4" points="125.66 175.35 134.6 179.2 117.15 180.05 125.66 175.35"/><polygon class="cls-4" points="137.57 175.17 146.5 179.02 129.05 179.87 137.57 175.17"/><polygon class="cls-4" points="178.31 173.75 187.04 178.03 169.57 178.03 178.31 173.75"/><polygon class="cls-4" points="190.15 174.75 198.88 179.03 181.41 179.03 190.15 174.75"/><polygon class="cls-4" points="202.97 174.75 211.71 179.03 194.23 179.03 202.97 174.75"/><polygon class="cls-4" points="266.47 176.28 257.51 180.06 274.96 181.04 266.47 176.28"/><polygon class="cls-4" points="256.26 175.28 247.3 179.06 264.75 180.04 256.26 175.28"/><polygon class="cls-4" points="243.36 175.01 234.4 178.79 251.84 179.77 243.36 175.01"/><polygon class="cls-4" points="217.17 174.06 225.91 178.34 208.44 178.34 217.17 174.06"/><polygon class="cls-4" points="229.01 175.06 237.75 179.34 220.28 179.34 229.01 175.06"/><polygon class="cls-4" points="161.92 173.94 153.19 178.22 170.66 178.22 161.92 173.94"/><polygon class="cls-4" points="150.08 174.94 141.35 179.22 158.82 179.22 150.08 174.94"/><polygon class="cls-4" points="276.82 177.32 267.86 181.11 285.3 182.09 276.82 177.32"/><polygon class="cls-4" points="105.52 175.96 114.48 179.75 97.03 180.72 105.52 175.96"/><path class="cls-11" d="M211.63,367.76a11.29,11.29,0,0,0-20.18-7,11.29,11.29,0,0,0-18.06,13.55h0l.06.06a11.1,11.1,0,0,0,2.24,2.3l15.7,16.09,15.35-15.73A11.29,11.29,0,0,0,211.63,367.76Z"/><path class="cls-4" d="M280.36,351.36c-.71-2-1.43-3.83-2.14-5.54a15.35,15.35,0,0,0-4.09-8.29l-12.27.65c3.63,12.85-.8,27.58-.81,41.47,0,1.4-.1,2.8-.17,4.19s-.15,2.8-.26,4.2c-1.58,11,11.8,22.8,21.83,14.88C291.76,395.38,286.7,369.07,280.36,351.36Z"/><rect class="cls-12" x="257.61" y="16.87" width="8.49" height="347.2" rx="4.25" transform="translate(-11.11 16.29) rotate(-3.49)"/><line class="cls-13" x1="-1.21" y1="73.13" x2="5.49" y2="532.63"/><path class="cls-14" d="M197,566.38c.2,7.35.2,13.35-.09,20,0,1.78.06,3.56.08,5.34a250.59,250.59,0,0,1-.77,26.59c-4.51,12.39-3,17.33,12.11,19.72,8.4.79,27.2,5,40.43,3.1.82-.12,1.63-.26,2.41-.42,8-.95,17-6.95,13-15.85a9.71,9.71,0,0,0-1.3-1.53c-3.81-3.65-10.05-4-15.65-5.57a15.59,15.59,0,0,1-2-.66c-3.32-1.33-6.59-3.75-9.51-5.79a19.3,19.3,0,0,1-1.62-1.77,20.52,20.52,0,0,1-3.4-6.13c0-.9-.07-1.77-.1-2.63a103.81,103.81,0,0,1,.86-16.94c.14-1,.3-2,.46-2.91,1.31-6.17,6.31-19.17-3.69-16.17s-20,4-29.27.44"/><path class="cls-14" d="M186.91,566.38c-.2,7.35-.2,13.35.09,20,0,1.78-.05,3.56-.08,5.34a248,248,0,0,0,.78,26.59c4.51,12.39,3,17.33-12.12,19.72-8.4.79-27.2,5-40.42,3.1-.83-.12-1.64-.26-2.42-.42-8-.95-17-6.95-13-15.85a9.26,9.26,0,0,1,1.31-1.53c3.8-3.65,10-4,15.64-5.57a15.09,15.09,0,0,0,2-.66c3.32-1.33,6.59-3.75,9.51-5.79a21,21,0,0,0,1.63-1.77,20.71,20.71,0,0,0,3.39-6.13c0-.9.08-1.77.1-2.63a102.69,102.69,0,0,0-.86-16.94q-.21-1.53-.45-2.91c-1.32-6.17-6.32-19.17,3.68-16.17s20,4,29.27.44"/><path class="cls-15" d="M250.52,17.09h8a.25.25,0,0,1,.25.25V122.67a.25.25,0,0,1-.25.25h-8.24a0,0,0,0,1,0,0V17.35a.25.25,0,0,1,.25-.25Z" transform="translate(-3.79 15.62) rotate(-3.49)"/><path class="cls-11" d="M250.35,8.58l6.51,99.23c120.83-6.85,219.72,1.8,220.87,19.34C473,54.81,371.19,1.73,250.35,8.58Z"/><path class="cls-16" d="M250.35,8.58l6.51,99.23C136,114.66,39,134.44,40.14,152,35.4,79.64,129.51,15.44,250.35,8.58Z"/><path class="cls-11" d="M256.86,107.9l-6.5-99.22a362.15,362.15,0,0,0-46.25,5.7c-35.78,19.73-61.44,59-67.83,105.74C170.65,114.79,212.11,110.46,256.86,107.9Z"/><path class="cls-16" d="M256.86,107.9l-6.5-99.22A363.32,363.32,0,0,1,297,9.11c38.1,15.54,68.7,51.63,81.15,97.29C343.33,105,301.62,105.38,256.86,107.9Z"/><rect class="cls-11" x="263.34" y="307.34" width="15.14" height="63.26" rx="5.69" transform="translate(-20.13 17.12) rotate(-3.49)"/><path class="cls-4" d="M281.31,323.39c-10.86-6.93-26-1.35-27.31,12.23a11.62,11.62,0,0,0,1,3.9,21.75,21.75,0,0,0,5.42,6.21,29.94,29.94,0,0,0,3.7,2.55c6,3.52,13.47,4.84,19.14.84a13.36,13.36,0,0,0,3-3.23c3.29-6.5,2.13-14-1.49-19.94A20.72,20.72,0,0,0,281.31,323.39Z"/><ellipse class="cls-17" cx="387.09" cy="615.26" rx="36.84" ry="28.14"/><path class="cls-17" d="M404.69,594.57c4.5-1.48,9-3.67,12.18-7.22,1.7-1.9,4.88-7.17,7.73-4,2.12,2.39,2.69,7,2.79,10.05a66.5,66.5,0,0,1-.39,11.81c-.61,4.12-2.35,7-4.76,10.35-1.59,2.23-3.19,4.91-6.06,5.54"/><ellipse class="cls-17" cx="370.87" cy="584.38" rx="25.85" ry="27.24"/><path class="cls-18" d="M353.26,582.74a46.78,46.78,0,0,1-5.26,4.41c-.36.22-.74.43-1.12.63a12,12,0,0,1-1.22.51c-1.36.49-6,1-6.39,2.57-.58,2.07,4.65,6.4,6.13,7.53,3,2.26,8.37,5.17,12.35,4.69a11.58,11.58,0,0,0,2.88-.7,8.14,8.14,0,0,0,1.19-.57c2.83-2.21,6.55-4.69,6.24-8.4,0-3.41-4-3.1-6.54-4.37-.28-.14-.56-.3-.83-.46-1.92-1.05-2.53-3.53-4.27-4.6"/><circle class="cls-3" cx="349.8" cy="578.73" r="1.99"/><circle class="cls-3" cx="369.37" cy="581.41" r="1.99"/></g></svg>